<svg width="512" height="512" viewBox="0 0 512 512" fill="none" xmlns="http://www.w3.org/2000/svg" role="img" aria-labelledby="title desc">
  <title id="title">刘宇翔头像占位</title>
  <desc id="desc">低饱和度个人头像占位图，后续可替换为真实照片。</desc>
  <rect width="512" height="512" rx="196" fill="#EAE3D7"/>
  <circle cx="360" cy="132" r="132" fill="#D4C7B6"/>
  <circle cx="132" cy="382" r="168" fill="#C9D0C1"/>
  <path d="M111 384C134 313 185 272 256 272C327 272 378 313 401 384C407 403 392 422 372 422H140C120 422 105 403 111 384Z" fill="#2B2824"/>
  <circle cx="256" cy="190" r="78" fill="#2B2824"/>
  <path d="M182 188C200 135 238 109 296 112C268 89 229 88 199 110C169 132 156 165 163 204C168 198 174 193 182 188Z" fill="#A16C54"/>
  <path d="M178 419H334" stroke="#FBFAF7" stroke-width="18" stroke-linecap="round"/>
</svg>
